<svg width="40" height="40" viewBox="0 0 40 40" fill="none" xmlns="http://www.w3.org/2000/svg">
<g id="Icon/Outline/arrow-ios-left">
<path id="Mask" fill-rule="evenodd" clip-rule="evenodd" d="M23.0477 31.6667C22.561 31.6667 22.0777 31.4551 21.7477 31.0451L13.701 21.0451C13.2044 20.4267 13.211 19.5434 13.7194 18.9334L22.0527 8.93339C22.641 8.22672 23.6927 8.13172 24.401 8.72005C25.1077 9.30839 25.2027 10.3601 24.6127 11.0667L17.1544 20.0184L24.346 28.9551C24.9227 29.6717 24.8094 30.7217 24.091 31.2984C23.7844 31.5467 23.4144 31.6667 23.0477 31.6667Z" fill="#3B414B"/>
<mask id="mask0" mask-type="alpha" maskUnits="userSpaceOnUse" x="13" y="8" width="12" height="24">
<path id="Mask_2" fill-rule="evenodd" clip-rule="evenodd" d="M23.0477 31.6667C22.561 31.6667 22.0777 31.4551 21.7477 31.0451L13.701 21.0451C13.2044 20.4267 13.211 19.5434 13.7194 18.9334L22.0527 8.93339C22.641 8.22672 23.6927 8.13172 24.401 8.72005C25.1077 9.30839 25.2027 10.3601 24.6127 11.0667L17.1544 20.0184L24.346 28.9551C24.9227 29.6717 24.8094 30.7217 24.091 31.2984C23.7844 31.5467 23.4144 31.6667 23.0477 31.6667Z" fill="white"/>
</mask>
<g mask="url(#mask0)">
<g id="&#240;&#159;&#142;&#168; Color">
<rect id="Base" width="40" height="40" fill="#3B414B"/>
</g>
</g>
</g>
</svg>
