<svg width="40" height="40" viewBox="0 0 40 40" fill="none" xmlns="http://www.w3.org/2000/svg">
<g id="Icon/Outline/arrow-ios-right">
<path id="Mask" fill-rule="evenodd" clip-rule="evenodd" d="M16.6658 31.6667C16.2892 31.6667 15.9108 31.54 15.5992 31.28C14.8925 30.6917 14.7975 29.64 15.3858 28.9333L22.8458 19.9817L15.6542 11.045C15.0775 10.3283 15.1908 9.27833 15.9075 8.70167C16.6258 8.125 17.6742 8.23833 18.2525 8.955L26.2992 18.955C26.7958 19.5733 26.7892 20.4567 26.2808 21.0667L17.9475 31.0667C17.6175 31.4617 17.1442 31.6667 16.6658 31.6667Z" fill="#3B414B"/>
<mask id="mask0" mask-type="alpha" maskUnits="userSpaceOnUse" x="15" y="8" width="12" height="24">
<path id="Mask_2" fill-rule="evenodd" clip-rule="evenodd" d="M16.6658 31.6667C16.2892 31.6667 15.9108 31.54 15.5992 31.28C14.8925 30.6917 14.7975 29.64 15.3858 28.9333L22.8458 19.9817L15.6542 11.045C15.0775 10.3283 15.1908 9.27833 15.9075 8.70167C16.6258 8.125 17.6742 8.23833 18.2525 8.955L26.2992 18.955C26.7958 19.5733 26.7892 20.4567 26.2808 21.0667L17.9475 31.0667C17.6175 31.4617 17.1442 31.6667 16.6658 31.6667Z" fill="white"/>
</mask>
<g mask="url(#mask0)">
<g id="&#240;&#159;&#142;&#168; Color">
<rect id="Base" width="40" height="40" fill="#3B414B"/>
</g>
</g>
</g>
</svg>
