<svg width="40" height="40" viewBox="0 0 40 40" fill="none" xmlns="http://www.w3.org/2000/svg">
<g id="Icon/Outline/facebook">
<path id="Mask" fill-rule="evenodd" clip-rule="evenodd" d="M16.6667 33.3334H20V23C20 22.0784 20.745 21.3334 21.6667 21.3334H25.4L26.1417 18.6667H21.6667C20.745 18.6667 20 17.9217 20 17V12.5C20 10.7534 21.495 9.33337 23.3334 9.33337H26.6667V6.66671H23.3334C19.6567 6.66671 16.6667 9.28337 16.6667 12.5V17C16.6667 17.9217 15.9217 18.6667 15 18.6667H11.6667V21.3334H15C15.9217 21.3334 16.6667 22.0784 16.6667 23V33.3334ZM21.6667 36.6667H15C14.0784 36.6667 13.3334 35.9217 13.3334 35V24.6667H10C9.07837 24.6667 8.33337 23.9217 8.33337 23V17C8.33337 16.0784 9.07837 15.3334 10 15.3334H13.3334V12.5C13.3334 7.44671 17.8184 3.33337 23.3334 3.33337H28.3334C29.255 3.33337 30 4.07837 30 5.00004V11C30 11.92 29.255 12.6667 28.3334 12.6667H23.3334V15.3334H28.3334C28.8534 15.3334 29.345 15.5784 29.66 15.9917C29.975 16.4067 30.0784 16.945 29.94 17.4467L28.2734 23.445C28.0734 24.1667 27.415 24.6667 26.6667 24.6667H23.3334V35C23.3334 35.9217 22.5884 36.6667 21.6667 36.6667Z" fill="white"/>
<mask id="mask0" mask-type="alpha" maskUnits="userSpaceOnUse" x="8" y="3" width="23" height="34">
<path id="Mask_2" fill-rule="evenodd" clip-rule="evenodd" d="M16.6667 33.3334H20V23C20 22.0784 20.745 21.3334 21.6667 21.3334H25.4L26.1417 18.6667H21.6667C20.745 18.6667 20 17.9217 20 17V12.5C20 10.7534 21.495 9.33337 23.3334 9.33337H26.6667V6.66671H23.3334C19.6567 6.66671 16.6667 9.28337 16.6667 12.5V17C16.6667 17.9217 15.9217 18.6667 15 18.6667H11.6667V21.3334H15C15.9217 21.3334 16.6667 22.0784 16.6667 23V33.3334ZM21.6667 36.6667H15C14.0784 36.6667 13.3334 35.9217 13.3334 35V24.6667H10C9.07837 24.6667 8.33337 23.9217 8.33337 23V17C8.33337 16.0784 9.07837 15.3334 10 15.3334H13.3334V12.5C13.3334 7.44671 17.8184 3.33337 23.3334 3.33337H28.3334C29.255 3.33337 30 4.07837 30 5.00004V11C30 11.92 29.255 12.6667 28.3334 12.6667H23.3334V15.3334H28.3334C28.8534 15.3334 29.345 15.5784 29.66 15.9917C29.975 16.4067 30.0784 16.945 29.94 17.4467L28.2734 23.445C28.0734 24.1667 27.415 24.6667 26.6667 24.6667H23.3334V35C23.3334 35.9217 22.5884 36.6667 21.6667 36.6667Z" fill="white"/>
</mask>
<g mask="url(#mask0)">
<g id="&#240;&#159;&#142;&#168; Color">
<rect id="Base" width="40" height="40" fill="white"/>
</g>
</g>
</g>
</svg>
