<svg width="40" height="40" viewBox="0 0 40 40" fill="none" xmlns="http://www.w3.org/2000/svg">
<g id="Icon/Outline/google">
<path id="Mask" fill-rule="evenodd" clip-rule="evenodd" d="M20.0048 6.66671C16.3681 6.66671 12.9715 8.10171 10.4381 10.71C7.9048 13.315 6.56814 16.7534 6.67314 20.3917C6.86814 27.2317 12.5881 33.03 19.4215 33.32C26.7248 33.6084 32.9531 27.9667 33.3248 20.6984C33.3365 20.485 33.3348 19.5434 33.3315 18.6667H21.6615V21.3034H30.5098L29.8348 23.4667C28.6331 27.3234 25.5865 29.97 21.6848 30.5467C18.7748 30.9684 15.7431 30.1367 13.3715 28.2417C11.0431 26.3867 9.58314 23.69 9.36314 20.8417C9.13314 17.83 10.1281 14.96 12.1715 12.755C14.9481 9.75504 19.4365 8.60004 23.2831 9.84837L24.5715 7.46671C23.1131 6.93504 21.5815 6.66671 20.0048 6.66671ZM19.9931 36.665C19.7581 36.665 19.5198 36.66 19.2814 36.65C10.7348 36.2884 3.58477 29.0384 3.33977 20.4867C3.21143 15.94 4.88143 11.6434 8.04644 8.38671C11.2148 5.12837 15.4598 3.33337 20.0048 3.33337C22.3948 3.33337 24.7048 3.83004 26.8698 4.80837C27.4714 5.08004 27.9398 5.59671 28.1514 6.22671C28.3664 6.86504 28.3064 7.57171 27.9864 8.16337L25.8331 12.1367C25.2481 13.2234 23.9281 13.69 22.7748 13.2084C20.0198 12.0867 16.6531 12.82 14.6164 15.02C13.2131 16.535 12.5281 18.5117 12.6864 20.585C12.8364 22.515 13.8431 24.355 15.4498 25.6367C17.1064 26.9584 19.2098 27.5467 21.1964 27.25C23.0298 26.9784 24.5498 26.0584 25.5831 24.6367H20.7448C19.4131 24.6367 18.3281 23.5534 18.3281 22.22V17.75C18.3281 16.4184 19.4131 15.3334 20.7448 15.3334H34.2448C35.5664 15.3334 36.6514 16.4084 36.6614 17.73C36.6664 18.7817 36.6698 20.56 36.6548 20.8667C36.1998 29.72 28.7948 36.665 19.9931 36.665Z" fill="white"/>
<mask id="mask0" mask-type="alpha" maskUnits="userSpaceOnUse" x="3" y="3" width="34" height="34">
<path id="Mask_2" fill-rule="evenodd" clip-rule="evenodd" d="M20.0048 6.66671C16.3681 6.66671 12.9715 8.10171 10.4381 10.71C7.9048 13.315 6.56814 16.7534 6.67314 20.3917C6.86814 27.2317 12.5881 33.03 19.4215 33.32C26.7248 33.6084 32.9531 27.9667 33.3248 20.6984C33.3365 20.485 33.3348 19.5434 33.3315 18.6667H21.6615V21.3034H30.5098L29.8348 23.4667C28.6331 27.3234 25.5865 29.97 21.6848 30.5467C18.7748 30.9684 15.7431 30.1367 13.3715 28.2417C11.0431 26.3867 9.58314 23.69 9.36314 20.8417C9.13314 17.83 10.1281 14.96 12.1715 12.755C14.9481 9.75504 19.4365 8.60004 23.2831 9.84837L24.5715 7.46671C23.1131 6.93504 21.5815 6.66671 20.0048 6.66671ZM19.9931 36.665C19.7581 36.665 19.5198 36.66 19.2814 36.65C10.7348 36.2884 3.58477 29.0384 3.33977 20.4867C3.21143 15.94 4.88143 11.6434 8.04644 8.38671C11.2148 5.12837 15.4598 3.33337 20.0048 3.33337C22.3948 3.33337 24.7048 3.83004 26.8698 4.80837C27.4714 5.08004 27.9398 5.59671 28.1514 6.22671C28.3664 6.86504 28.3064 7.57171 27.9864 8.16337L25.8331 12.1367C25.2481 13.2234 23.9281 13.69 22.7748 13.2084C20.0198 12.0867 16.6531 12.82 14.6164 15.02C13.2131 16.535 12.5281 18.5117 12.6864 20.585C12.8364 22.515 13.8431 24.355 15.4498 25.6367C17.1064 26.9584 19.2098 27.5467 21.1964 27.25C23.0298 26.9784 24.5498 26.0584 25.5831 24.6367H20.7448C19.4131 24.6367 18.3281 23.5534 18.3281 22.22V17.75C18.3281 16.4184 19.4131 15.3334 20.7448 15.3334H34.2448C35.5664 15.3334 36.6514 16.4084 36.6614 17.73C36.6664 18.7817 36.6698 20.56 36.6548 20.8667C36.1998 29.72 28.7948 36.665 19.9931 36.665Z" fill="white"/>
</mask>
<g mask="url(#mask0)">
<g id="&#240;&#159;&#142;&#168; Color">
<rect id="Base" width="40" height="40" fill="white"/>
</g>
</g>
</g>
</svg>
