<svg width="40" height="40" viewBox="0 0 40 40" fill="none" xmlns="http://www.w3.org/2000/svg">
<g id="Icon/Outline/linkedin">
<path id="Mask" fill-rule="evenodd" clip-rule="evenodd" d="M6.66674 16.6666H6.6634L6.66674 33.3333H10.0001V16.6666H6.66674ZM10 36.6666H6.66671C4.82837 36.6666 3.33337 35.1716 3.33337 33.3333V16.6666C3.33337 14.8283 4.82837 13.3333 6.66671 13.3333H10C11.8384 13.3333 13.3334 14.8283 13.3334 16.6666V33.3333C13.3334 35.1716 11.8384 36.6666 10 36.6666ZM25.8416 19.4873C26.0966 19.4873 26.3549 19.509 26.6099 19.549C28.8599 19.9173 30.5549 21.994 30.5549 24.3823V33.334H33.3333V24.2306C33.3333 20.0606 29.9699 16.6673 25.8333 16.6673C21.6983 16.6673 18.3333 20.0606 18.3333 24.2306V33.334H21.1116V24.2306C21.1116 22.8323 21.7199 21.5123 22.7833 20.609C23.6433 19.879 24.7249 19.4873 25.8416 19.4873ZM33.3333 36.6673H30.5549C28.7183 36.6673 27.2216 35.1706 27.2216 33.334V24.3823C27.2216 23.6206 26.7166 22.944 26.0749 22.8406C25.5149 22.744 25.1249 22.994 24.9433 23.1473C24.6266 23.4173 24.4449 23.8123 24.4449 24.2306V33.334C24.4449 35.1706 22.9499 36.6673 21.1116 36.6673H18.3333C16.4966 36.6673 14.9999 35.1706 14.9999 33.334V24.2306C14.9999 18.2206 19.8599 13.334 25.8333 13.334C31.8066 13.334 36.6666 18.2206 36.6666 24.2306V33.334C36.6666 35.1706 35.1716 36.6673 33.3333 36.6673ZM8.33337 4.99996C7.41337 4.99996 6.66671 5.74663 6.66671 6.66663C6.66671 7.58663 7.41337 8.33329 8.33337 8.33329C9.25337 8.33329 10 7.58663 10 6.66663C10 5.74663 9.25337 4.99996 8.33337 4.99996ZM8.33337 11.6666C5.57671 11.6666 3.33337 9.42329 3.33337 6.66663C3.33337 3.90996 5.57671 1.66663 8.33337 1.66663C11.09 1.66663 13.3334 3.90996 13.3334 6.66663C13.3334 9.42329 11.09 11.6666 8.33337 11.6666Z" fill="white"/>
<mask id="mask0" mask-type="alpha" maskUnits="userSpaceOnUse" x="3" y="1" width="34" height="36">
<path id="Mask_2" fill-rule="evenodd" clip-rule="evenodd" d="M6.66674 16.6666H6.6634L6.66674 33.3333H10.0001V16.6666H6.66674ZM10 36.6666H6.66671C4.82837 36.6666 3.33337 35.1716 3.33337 33.3333V16.6666C3.33337 14.8283 4.82837 13.3333 6.66671 13.3333H10C11.8384 13.3333 13.3334 14.8283 13.3334 16.6666V33.3333C13.3334 35.1716 11.8384 36.6666 10 36.6666ZM25.8416 19.4873C26.0966 19.4873 26.3549 19.509 26.6099 19.549C28.8599 19.9173 30.5549 21.994 30.5549 24.3823V33.334H33.3333V24.2306C33.3333 20.0606 29.9699 16.6673 25.8333 16.6673C21.6983 16.6673 18.3333 20.0606 18.3333 24.2306V33.334H21.1116V24.2306C21.1116 22.8323 21.7199 21.5123 22.7833 20.609C23.6433 19.879 24.7249 19.4873 25.8416 19.4873ZM33.3333 36.6673H30.5549C28.7183 36.6673 27.2216 35.1706 27.2216 33.334V24.3823C27.2216 23.6206 26.7166 22.944 26.0749 22.8406C25.5149 22.744 25.1249 22.994 24.9433 23.1473C24.6266 23.4173 24.4449 23.8123 24.4449 24.2306V33.334C24.4449 35.1706 22.9499 36.6673 21.1116 36.6673H18.3333C16.4966 36.6673 14.9999 35.1706 14.9999 33.334V24.2306C14.9999 18.2206 19.8599 13.334 25.8333 13.334C31.8066 13.334 36.6666 18.2206 36.6666 24.2306V33.334C36.6666 35.1706 35.1716 36.6673 33.3333 36.6673ZM8.33337 4.99996C7.41337 4.99996 6.66671 5.74663 6.66671 6.66663C6.66671 7.58663 7.41337 8.33329 8.33337 8.33329C9.25337 8.33329 10 7.58663 10 6.66663C10 5.74663 9.25337 4.99996 8.33337 4.99996ZM8.33337 11.6666C5.57671 11.6666 3.33337 9.42329 3.33337 6.66663C3.33337 3.90996 5.57671 1.66663 8.33337 1.66663C11.09 1.66663 13.3334 3.90996 13.3334 6.66663C13.3334 9.42329 11.09 11.6666 8.33337 11.6666Z" fill="white"/>
</mask>
<g mask="url(#mask0)">
<g id="&#240;&#159;&#142;&#168; Color">
<rect id="Base" width="40" height="40" fill="white"/>
</g>
</g>
</g>
</svg>
