<svg width="40" height="40" viewBox="0 0 40 40" fill="none" xmlns="http://www.w3.org/2000/svg">
<g id="Icon/Outline/twitter">
<path id="Mask" fill-rule="evenodd" clip-rule="evenodd" d="M31.6927 11.0906V11.0939V11.0906ZM14.1877 29.9956C14.2277 29.9956 14.271 29.9972 14.311 30.0006C23.8027 29.9389 29.4677 22.6872 29.4677 15.6772C29.4677 15.0406 29.7944 14.6289 30.0844 14.2639C30.3477 13.9306 30.756 13.4172 31.1194 12.6772C29.7977 12.6639 28.6177 12.0772 27.931 11.2739C27.2127 10.5056 26.181 10.0356 25.0677 10.0022C23.9944 9.95889 22.8994 10.3722 22.086 11.1439C21.0027 12.1722 20.5394 13.7239 20.876 15.1906L21.311 17.0889L19.3677 17.2256C14.341 17.6022 10.8577 15.4506 8.46602 13.2239C8.47602 16.5906 9.59436 21.0822 14.6777 23.9789L16.2744 24.8889L15.2127 26.3906C14.1077 27.9556 12.4444 28.9539 10.751 29.5922C11.8694 29.8589 13.0194 29.9956 14.166 29.9956H14.186H14.1877ZM14.1877 33.3339C14.1444 33.3339 14.0977 33.3322 14.0544 33.3289C11.3827 33.3106 8.70271 32.6889 6.29605 31.5239C5.39105 31.0839 4.87938 30.1206 5.02438 29.1206C5.17105 28.1089 5.94771 27.3156 6.95438 27.1522C8.69605 26.8656 10.141 26.3556 11.1877 25.6739C4.72605 20.8422 4.89605 13.6089 5.31438 10.5456C5.43771 9.64889 6.07605 8.90055 6.93938 8.63889C7.81605 8.37222 8.72438 8.63889 9.32438 9.32055C11.8844 12.2222 14.4427 13.6806 17.4427 13.9022C17.5294 11.9606 18.356 10.0889 19.791 8.72555C21.2527 7.33722 23.1644 6.61055 25.171 6.67055C27.1794 6.73222 29.0427 7.57889 30.416 9.05389C30.556 9.21389 31.0794 9.50389 31.711 9.22055C32.5394 8.84889 33.481 8.97222 34.1677 9.54555C34.8527 10.1139 35.1444 11.0089 34.931 11.8806C34.3927 14.0989 33.3294 15.5289 32.7927 16.2139C32.5127 24.7222 25.5994 33.3339 14.1877 33.3339Z" fill="white"/>
<mask id="mask0" mask-type="alpha" maskUnits="userSpaceOnUse" x="5" y="6" width="30" height="28">
<path id="Mask_2" fill-rule="evenodd" clip-rule="evenodd" d="M31.6927 11.0906V11.0939V11.0906ZM14.1877 29.9956C14.2277 29.9956 14.271 29.9972 14.311 30.0006C23.8027 29.9389 29.4677 22.6872 29.4677 15.6772C29.4677 15.0406 29.7944 14.6289 30.0844 14.2639C30.3477 13.9306 30.756 13.4172 31.1194 12.6772C29.7977 12.6639 28.6177 12.0772 27.931 11.2739C27.2127 10.5056 26.181 10.0356 25.0677 10.0022C23.9944 9.95889 22.8994 10.3722 22.086 11.1439C21.0027 12.1722 20.5394 13.7239 20.876 15.1906L21.311 17.0889L19.3677 17.2256C14.341 17.6022 10.8577 15.4506 8.46602 13.2239C8.47602 16.5906 9.59436 21.0822 14.6777 23.9789L16.2744 24.8889L15.2127 26.3906C14.1077 27.9556 12.4444 28.9539 10.751 29.5922C11.8694 29.8589 13.0194 29.9956 14.166 29.9956H14.186H14.1877ZM14.1877 33.3339C14.1444 33.3339 14.0977 33.3322 14.0544 33.3289C11.3827 33.3106 8.70271 32.6889 6.29605 31.5239C5.39105 31.0839 4.87938 30.1206 5.02438 29.1206C5.17105 28.1089 5.94771 27.3156 6.95438 27.1522C8.69605 26.8656 10.141 26.3556 11.1877 25.6739C4.72605 20.8422 4.89605 13.6089 5.31438 10.5456C5.43771 9.64889 6.07605 8.90055 6.93938 8.63889C7.81605 8.37222 8.72438 8.63889 9.32438 9.32055C11.8844 12.2222 14.4427 13.6806 17.4427 13.9022C17.5294 11.9606 18.356 10.0889 19.791 8.72555C21.2527 7.33722 23.1644 6.61055 25.171 6.67055C27.1794 6.73222 29.0427 7.57889 30.416 9.05389C30.556 9.21389 31.0794 9.50389 31.711 9.22055C32.5394 8.84889 33.481 8.97222 34.1677 9.54555C34.8527 10.1139 35.1444 11.0089 34.931 11.8806C34.3927 14.0989 33.3294 15.5289 32.7927 16.2139C32.5127 24.7222 25.5994 33.3339 14.1877 33.3339Z" fill="white"/>
</mask>
<g mask="url(#mask0)">
<g id="&#240;&#159;&#142;&#168; Color">
<rect id="Base" width="40" height="40" fill="white"/>
</g>
</g>
</g>
</svg>
